<?xml version="1.0" standalone="no"?>
<!DOCTYPE svg PUBLIC "-//W3C//DTD SVG 20010904//EN"
 "http://www.w3.org/TR/2001/REC-SVG-20010904/DTD/svg10.dtd">
<svg version="1.0" xmlns="http://www.w3.org/2000/svg"
 width="409.000000pt" height="412.000000pt" viewBox="0 0 409.000000 412.000000"
 preserveAspectRatio="xMidYMid meet">

<g transform="translate(0.000000,412.000000) scale(0.100000,-0.100000)"
fill="green" stroke="none">
<path d="M2845 3510 c-247 -24 -409 -59 -630 -133 -167 -57 -405 -164 -535
-242 -51 -30 -61 -31 150 14 338 71 670 102 906 82 343 -29 541 -125 631 -309
38 -75 38 -77 38 -197 -1 -113 -3 -124 -34 -198 -133 -313 -468 -581 -974
-782 -65 -25 -122 -45 -127 -43 -5 2 104 192 241 423 138 231 257 434 266 450
l16 30 -39 -35 c-93 -82 -514 -459 -699 -625 -110 -99 -254 -227 -318 -285
-269 -239 -362 -410 -272 -495 95 -87 552 -71 975 35 796 199 1400 713 1546
1317 24 99 23 346 -1 433 -65 231 -261 413 -540 500 -162 50 -430 77 -600 60z"/>
<path d="M2375 3069 c-195 -7 -372 -34 -575 -86 -52 -14 -103 -26 -113 -28
-24 -5 -167 -54 -192 -65 -11 -5 -45 -19 -75 -31 -62 -23 -209 -95 -285 -139
-27 -16 -57 -33 -65 -36 -24 -11 -105 -68 -108 -76 -2 -5 -8 -8 -14 -8 -9 0
-58 -35 -117 -85 -32 -26 -240 -234 -266 -266 -51 -60 -85 -108 -85 -118 0 -6
-4 -11 -9 -11 -5 0 -11 -8 -15 -17 -5 -18 -26 -53 -36 -63 -6 -6 -91 -180
-110 -225 -12 -30 -36 -114 -48 -170 -4 -16 -6 -106 -6 -200 1 -146 4 -179 23
-235 59 -177 182 -310 376 -404 272 -133 614 -163 1015 -90 47 9 119 25 160
36 41 11 89 24 105 28 140 36 539 208 618 266 l22 16 -25 -5 c-14 -2 -59 -12
-100 -21 -121 -26 -235 -45 -395 -66 -210 -28 -548 -28 -696 0 -181 34 -308
90 -393 176 -66 66 -102 133 -122 229 -18 85 -10 159 26 267 106 312 495 622
1035 825 22 8 50 19 63 24 30 12 29 -3 -8 -63 -16 -26 -30 -50 -30 -53 0 -2
-31 -56 -70 -120 -38 -64 -70 -118 -70 -120 0 -2 -26 -48 -58 -102 -32 -54
-91 -154 -132 -223 -40 -69 -82 -141 -94 -160 l-20 -35 34 29 c32 26 167 146
194 171 6 6 121 109 256 230 135 120 247 221 250 225 3 3 66 59 140 125 305
271 413 391 446 501 11 36 12 56 4 80 -28 85 -124 105 -435 93z"/>
</g>
</svg>
