<?xml version="1.0" standalone="no"?>
<!DOCTYPE svg PUBLIC "-//W3C//DTD SVG 20010904//EN"
 "http://www.w3.org/TR/2001/REC-SVG-20010904/DTD/svg10.dtd">
<svg version="1.0" xmlns="http://www.w3.org/2000/svg"
 width="660.000000pt" height="330.000000pt" viewBox="0 0 660.000000 330.000000"
 preserveAspectRatio="xMidYMid meet">

<g transform="translate(0.000000,330.000000) scale(0.100000,-0.100000)"
fill="blue" stroke="black">
<path d="M680 1950 c0 -147 -1 -160 -18 -160 -10 0 -78 20 -152 45 -74 25
-138 45 -142 45 -12 0 -32 -80 -22 -89 5 -5 74 -30 152 -56 160 -53 197 -54
241 -10 26 25 26 29 31 205 l5 180 -47 0 -48 0 0 -160z"/>
<path d="M810 1945 c0 -184 7 -213 60 -240 43 -22 61 -20 226 35 l152 51 -16
42 c-9 23 -17 44 -19 46 -1 2 -65 -18 -141 -44 -80 -28 -146 -46 -156 -42 -15
6 -17 23 -14 162 l3 155 -47 0 -48 0 0 -165z"/>
<path d="M2972 1841 c-107 -37 -157 -118 -150 -240 5 -89 38 -142 117 -183 47
-24 64 -28 141 -28 77 0 94 4 141 28 97 50 141 164 109 282 -34 126 -205 194
-358 141z m184 -90 c63 -39 85 -147 41 -212 -63 -95 -210 -85 -253 17 -30 72
-3 167 57 197 46 22 116 22 155 -2z"/>
<path d="M3555 1851 c-108 -27 -176 -113 -177 -225 -1 -154 90 -236 263 -236
72 0 93 4 138 26 54 27 94 74 106 127 l7 27 -61 0 c-49 0 -61 -3 -61 -16 0 -8
-13 -28 -28 -44 -41 -40 -105 -49 -166 -21 -91 40 -112 162 -42 239 28 30 40
36 88 40 65 5 124 -18 141 -55 9 -20 17 -23 69 -23 32 0 58 2 58 5 0 22 -33
76 -63 102 -60 53 -179 76 -272 54z"/>
<path d="M1427 1844 c-4 -4 -7 -106 -7 -226 l0 -218 201 0 200 0 -3 43 -3 42
-142 3 -143 3 0 49 0 49 128 3 127 3 0 40 0 40 -128 3 -128 3 3 37 3 37 143 3
143 3 -3 42 -3 42 -191 3 c-104 1 -193 -1 -197 -4z"/>
<path d="M1876 1813 c15 -21 54 -71 86 -112 36 -46 55 -78 50 -85 -5 -6 -46
-57 -91 -113 l-82 -103 69 0 68 0 48 65 c26 35 51 67 56 70 5 3 30 -26 57 -65
l48 -69 68 -1 c37 0 67 3 67 6 0 3 -34 49 -77 102 -42 53 -80 102 -85 109 -7
8 14 42 68 110 43 54 82 104 87 111 7 9 -5 12 -57 12 l-66 0 -47 -70 c-27 -38
-50 -69 -53 -70 -3 0 -29 32 -58 70 l-52 70 -66 0 -66 0 28 -37z"/>
<path d="M2368 1844 c-5 -4 -8 -106 -8 -226 l0 -218 55 0 55 0 0 70 0 70 98 0
c158 1 215 42 216 155 0 59 -23 104 -68 131 -26 16 -56 20 -186 22 -85 2 -158
0 -162 -4z m296 -103 c11 -12 16 -31 14 -52 -4 -45 -34 -59 -125 -59 l-73 0 0
65 0 65 83 0 c70 0 87 -3 101 -19z"/>
<path d="M3920 1625 l0 -225 195 0 195 0 0 45 0 45 -140 0 -140 0 0 50 0 50
125 0 125 0 0 45 0 45 -125 0 -125 0 0 40 0 40 140 0 140 0 0 45 0 45 -195 0
-195 0 0 -225z"/>
<path d="M4350 1625 l0 -225 50 0 51 0 -3 155 c-2 85 0 155 4 155 4 0 56 -70
115 -155 l107 -155 68 0 68 0 -2 223 -3 222 -48 0 -49 0 1 -152 c1 -92 -2
-153 -8 -153 -5 0 -58 70 -117 155 l-107 155 -64 0 -63 0 0 -225z"/>
<path d="M4840 1805 l0 -45 75 0 75 0 0 -180 0 -180 55 0 55 0 0 180 0 180 75
0 75 0 0 45 0 45 -205 0 -205 0 0 -45z"/>
<path d="M5274 1837 c-2 -7 -3 -109 -2 -227 l3 -215 53 -3 52 -3 0 85 0 86 85
0 c106 0 125 -14 125 -89 0 -77 4 -81 72 -81 53 0 59 2 53 18 -4 9 -10 50 -14
91 -6 59 -12 77 -29 92 l-22 17 29 30 c52 51 52 136 0 175 -39 29 -92 37 -252
37 -111 0 -149 -3 -153 -13z m299 -86 c28 -11 41 -39 31 -64 -9 -25 -70 -39
-149 -35 l-70 3 -3 53 -3 52 85 0 c47 0 96 -4 109 -9z"/>
<path d="M5757 1843 c-4 -3 -7 -105 -7 -225 l0 -218 195 0 195 0 0 45 0 45
-140 0 -140 0 0 50 0 50 125 0 125 0 0 45 0 45 -125 0 -125 0 0 40 0 40 140 0
140 0 0 45 0 45 -188 0 c-104 0 -192 -3 -195 -7z"/>
<path d="M314 1725 c-8 -19 -14 -41 -14 -49 0 -10 46 -30 141 -61 77 -26 143
-53 146 -61 3 -7 -36 -70 -86 -138 l-91 -125 34 -26 c18 -14 37 -25 43 -25 8
0 105 128 177 234 38 56 35 106 -6 151 -27 28 -60 43 -181 84 l-148 51 -15
-35z"/>
<path d="M1085 1699 c-164 -58 -195 -82 -195 -152 0 -37 12 -58 98 -178 l97
-136 37 26 c21 14 36 31 34 37 -2 5 -43 65 -91 132 -47 67 -83 126 -80 132 3
5 71 30 150 56 80 25 145 48 145 51 0 28 -26 83 -39 82 -9 0 -79 -23 -156 -50z"/>
<path d="M734 1491 c-17 -10 -72 -77 -122 -148 l-91 -128 32 -27 c18 -15 37
-26 42 -24 6 1 48 57 95 124 47 67 90 122 97 122 6 0 51 -56 100 -125 48 -68
93 -125 98 -125 6 1 24 13 42 28 l32 27 -85 120 c-46 66 -95 130 -108 143 -32
33 -92 39 -132 13z"/>
<path d="M5313 1195 c-57 -24 -54 -107 4 -121 70 -16 97 -64 49 -85 -18 -9
-33 -8 -57 0 -25 9 -34 8 -40 -1 -12 -18 3 -29 48 -35 106 -14 159 100 66 141
-60 27 -68 32 -71 49 -5 25 39 42 68 27 16 -9 25 -9 33 -1 27 27 -51 47 -100
26z"/>
<path d="M4766 1143 c-19 -185 -19 -193 -4 -193 20 0 28 30 28 113 0 77 12 81
29 10 27 -108 32 -123 46 -123 8 0 20 22 29 53 8 28 20 72 27 97 l13 45 10
-97 c8 -87 11 -98 28 -98 18 0 19 5 14 48 -3 26 -8 80 -12 120 -6 67 -8 72
-30 72 -20 0 -26 -9 -44 -69 -11 -37 -20 -73 -20 -80 0 -29 -19 -6 -29 37 -30
121 -31 122 -55 122 -21 0 -24 -6 -30 -57z"/>
<path d="M5081 1186 c-34 -19 -50 -54 -51 -109 0 -82 37 -127 106 -127 35 0
81 49 90 94 19 105 -64 187 -145 142z m96 -53 c16 -40 12 -115 -8 -139 -15
-19 -64 -18 -80 2 -7 8 -14 40 -17 69 -6 70 14 105 59 105 25 0 32 -6 46 -37z"/>
<path d="M5519 1185 c-63 -34 -73 -152 -19 -207 37 -37 120 -39 120 -3 0 9
-11 12 -38 8 -53 -7 -77 21 -77 92 0 68 24 99 72 92 35 -6 55 9 32 24 -21 13
-60 10 -90 -6z"/>
<path d="M5687 1179 c-54 -42 -58 -150 -6 -201 44 -44 121 -30 147 27 17 36
15 110 -3 146 -27 50 -93 64 -138 28z m95 -26 c13 -12 18 -31 18 -75 0 -33 -5
-68 -10 -79 -14 -25 -62 -25 -85 1 -21 23 -25 113 -7 148 15 27 57 30 84 5z"/>
<path d="M5873 1178 c3 -13 15 -67 27 -120 20 -89 24 -98 44 -98 21 0 24 7 36
78 7 42 16 81 20 85 4 5 13 -22 20 -60 17 -93 27 -115 47 -111 12 2 25 36 48
126 29 112 30 122 14 122 -20 0 -34 -39 -45 -124 -7 -47 -24 -74 -24 -38 0 11
-7 52 -16 91 -14 62 -19 71 -39 71 -20 0 -24 -8 -40 -92 -20 -101 -24 -99 -45
20 -11 60 -16 72 -33 72 -15 0 -18 -5 -14 -22z"/>
</g>
</svg>
