<?xml version="1.0" standalone="no"?>
<!DOCTYPE svg PUBLIC "-//W3C//DTD SVG 20010904//EN"
 "http://www.w3.org/TR/2001/REC-SVG-20010904/DTD/svg10.dtd">
<svg version="1.0" xmlns="http://www.w3.org/2000/svg"
 width="1200.000000pt" height="172.000000pt" viewBox="0 0 1200.000000 172.000000"
 preserveAspectRatio="xMidYMid meet">

<g transform="translate(0.000000,172.000000) scale(0.100000,-0.100000)"
fill="#000000" stroke="none">
<path d="M1168 1469 c-16 -9 -18 -29 -18 -184 0 -162 1 -175 19 -185 11 -6 90
-10 184 -10 146 0 166 2 180 18 14 16 17 44 17 179 0 142 -2 162 -18 176 -16
14 -44 17 -183 17 -93 0 -172 -5 -181 -11z m354 -11 c3 -7 4 -23 3 -35 -1 -12
2 -20 7 -17 14 9 10 -250 -4 -265 -11 -11 -10 -12 0 -6 11 6 12 3 3 -14 -11
-20 -19 -21 -180 -21 -123 0 -171 3 -179 13 -13 16 -14 314 -1 338 9 17 24 19
178 19 126 0 170 -3 173 -12z"/>
<path d="M1180 1445 c-8 -9 -8 -15 -2 -15 12 0 26 19 19 26 -2 2 -10 -2 -17
-11z"/>
<path d="M755 1032 c-22 -2 -45 -8 -52 -14 -16 -13 -18 -319 -3 -349 10 -18
23 -19 190 -19 167 0 180 1 190 19 15 30 13 336 -3 349 -12 11 -242 20 -322
14z m313 -24 c17 -17 17 -319 0 -336 -17 -17 -339 -17 -356 0 -13 13 -18 301
-6 332 5 14 31 16 178 16 120 0 176 -4 184 -12z"/>
<path d="M1160 1020 c-18 -18 -20 -33 -20 -179 l0 -160 27 -21 c26 -20 36 -21
191 -18 148 3 165 5 178 22 11 15 14 58 14 181 0 144 -2 164 -18 178 -16 14
-44 17 -185 17 -154 0 -169 -2 -187 -20z"/>
<path d="M700 571 c-6 -11 -10 -88 -10 -179 0 -136 2 -162 17 -173 12 -10 59
-15 175 -17 222 -5 208 -18 208 196 0 117 -4 172 -12 180 -8 8 -65 12 -190 12
-165 0 -178 -1 -188 -19z m367 -3 c6 -7 11 -83 12 -168 3 -204 13 -194 -181
-187 -160 6 -180 8 -190 21 -9 13 -10 309 -1 322 14 20 36 22 194 23 114 1
159 -2 166 -11z"/>
<path d="M1997 553 c-3 -5 -8 -60 -11 -123 -4 -63 -9 -134 -13 -158 -4 -33 -2
-42 10 -42 10 0 16 15 21 53 9 78 9 198 1 234 -6 27 -5 31 11 29 10 -2 20 -9
22 -16 3 -8 0 -10 -8 -5 -9 5 -11 4 -6 -4 4 -6 12 -8 18 -5 6 4 8 -1 3 -15 -7
-24 70 -271 85 -271 13 0 26 27 60 124 17 48 27 92 23 102 -4 12 -3 15 5 10 7
-4 13 -1 13 6 4 43 9 71 13 75 7 7 26 -6 26 -18 0 -6 -3 -8 -7 -6 -5 3 -5 -38
-2 -91 4 -54 7 -121 8 -149 1 -42 4 -53 17 -53 15 0 16 13 10 123 -10 188 -14
209 -40 205 -17 -2 -29 -25 -63 -118 -23 -63 -42 -126 -43 -140 0 -30 -16 -57
-27 -47 -4 5 -1 12 6 16 7 5 10 14 7 20 -4 6 -12 8 -18 5 -6 -4 -8 1 -4 13 5
15 -36 154 -69 236 -7 17 -40 24 -48 10z m280 -165 c-2 -18 -4 -4 -4 32 0 36
2 50 4 33 2 -18 2 -48 0 -65z m-188 -8 c0 -8 -7 1 -14 20 -18 46 -17 64 0 25
8 -16 14 -37 14 -45z m-92 -42 c-2 -13 -4 -3 -4 22 0 25 2 35 4 23 2 -13 2
-33 0 -45z m290 -65 c-3 -10 -5 -2 -5 17 0 19 2 27 5 18 2 -10 2 -26 0 -35z"/>
<path d="M3450 547 c0 -41 78 -52 105 -15 10 15 12 24 4 27 -6 2 -17 -6 -25
-18 -19 -26 -40 -27 -56 -1 -15 23 -28 26 -28 7z"/>
<path d="M9690 551 c0 -36 75 -54 104 -25 18 18 21 34 6 34 -5 0 -10 -4 -10
-10 0 -14 -37 -31 -54 -24 -9 3 -16 12 -16 20 0 8 -7 14 -15 14 -8 0 -15 -4
-15 -9z"/>
<path d="M2798 459 c-16 -6 -28 -14 -28 -19 0 -9 49 2 71 16 7 4 9 3 6 -3 -4
-6 3 -13 14 -16 16 -4 20 -12 17 -34 -2 -23 -10 -30 -40 -37 -47 -12 -49 -26
-5 -26 18 0 38 -5 45 -12 7 -7 12 -8 12 -4 0 5 7 3 15 -4 17 -14 21 -55 4 -45
-6 4 -8 13 -5 21 3 7 1 16 -4 19 -6 4 -10 -5 -10 -19 0 -34 -32 -50 -86 -42
-24 3 -44 2 -44 -3 0 -23 92 -29 135 -9 28 13 43 53 28 77 -5 8 -25 19 -44 24
l-34 9 35 17 c20 9 36 25 38 37 6 42 -65 74 -120 53z m100 -30 c10 -15 11 -24
3 -32 -8 -8 -11 -5 -11 9 0 11 -5 25 -12 32 -7 7 -8 12 -2 12 5 0 15 -10 22
-21z m-2 -174 c-11 -8 -24 -15 -30 -15 -5 0 -1 7 10 15 10 8 24 14 29 14 6 0
1 -6 -9 -14z"/>
<path d="M3114 451 c-71 -44 -71 -176 1 -209 48 -22 157 -9 131 15 -5 4 -11 3
-13 -3 -2 -7 -20 -8 -50 -4 -50 8 -93 45 -93 80 0 10 -4 22 -10 25 -5 3 -10
11 -10 16 0 6 4 8 9 4 5 -3 12 3 16 14 10 32 44 55 85 57 22 1 43 -2 46 -7 3
-5 -3 -6 -12 -2 -17 6 -17 5 -1 -17 32 -47 24 -59 -45 -63 l-63 -4 66 0 c36 0
71 -3 77 -7 8 -5 12 4 12 28 0 74 -82 118 -146 77z m-30 -136 c3 -8 1 -15 -4
-15 -6 0 -10 7 -10 15 0 8 2 15 4 15 2 0 6 -7 10 -15z m23 -40 c8 -9 13 -18
11 -21 -3 -2 -13 5 -23 16 -21 23 -11 27 12 5z"/>
<path d="M4172 459 c-13 -5 -21 -13 -17 -19 3 -5 0 -7 -8 -4 -9 3 -18 -5 -25
-23 -39 -100 3 -183 93 -183 28 0 44 4 40 10 -3 5 0 7 7 5 24 -9 60 40 65 88
11 96 -69 161 -155 126z m53 -10 c4 -6 14 -8 22 -5 31 12 59 -17 69 -74 3 -19
2 -22 -6 -10 -5 8 -10 22 -10 31 0 19 -37 55 -47 46 -3 -4 -1 -7 6 -7 7 0 19
-16 27 -35 11 -28 12 -44 4 -75 -12 -43 -37 -64 -87 -73 -27 -5 -36 -2 -57 24
-14 17 -26 38 -25 47 0 11 4 8 10 -8 11 -28 38 -60 50 -60 4 0 -3 12 -17 27
-21 23 -25 36 -22 75 3 54 -8 66 -15 16 l-4 -33 -1 31 c-1 18 5 37 13 44 8 7
15 9 15 5 0 -4 7 -2 15 5 8 7 13 16 10 20 -3 5 5 6 17 2 14 -3 19 -2 14 6 -4
7 -3 12 3 12 5 0 13 -5 16 -11z m79 -158 c-10 -17 -22 -31 -26 -31 -5 0 1 13
13 29 13 17 18 35 14 43 -6 10 -5 10 5 1 10 -9 9 -17 -6 -42z"/>
<path d="M5143 455 c-18 -8 -33 -19 -33 -25 0 -5 -4 -10 -10 -10 -5 0 -10 9
-10 20 0 12 -7 20 -16 20 -13 0 -15 -7 -9 -42 4 -24 12 -46 17 -49 6 -4 5 -9
-3 -12 -10 -4 -10 -6 -1 -6 7 -1 12 -13 11 -28 l-1 -28 -8 25 -8 25 -1 -27
c-1 -19 4 -28 15 -28 9 0 12 -5 8 -12 -4 -7 -3 -8 4 -4 7 4 12 3 12 -3 0 -35
77 -54 121 -31 43 24 63 117 38 174 -11 22 -63 57 -86 56 -4 -1 -23 -7 -40
-15z m-55 -60 c0 -16 -2 -15 -8 5 -11 34 -11 60 0 35 5 -11 8 -29 8 -40z m157
35 c26 -29 15 -32 -15 -4 -13 13 -20 24 -14 24 6 0 19 -9 29 -20z m-25 -10
c11 -11 20 -24 20 -30 0 -5 6 -8 13 -6 6 1 9 1 5 -1 -5 -3 -8 -20 -8 -38 0
-21 -9 -45 -26 -64 -14 -17 -21 -31 -16 -31 12 0 34 26 49 59 7 17 12 20 12 9
1 -9 -10 -30 -24 -46 -19 -23 -31 -29 -60 -27 -56 4 -85 37 -85 99 0 37 5 55
22 73 27 29 71 30 98 3z"/>
<path d="M5473 454 c-45 -23 -71 -89 -54 -144 16 -53 52 -80 108 -80 24 0 42
4 39 9 -3 5 1 8 10 7 22 -2 53 42 60 85 9 51 -20 107 -62 125 -42 18 -61 17
-101 -2z m128 -33 c10 -13 19 -28 19 -35 -1 -6 -8 2 -16 17 -9 16 -18 27 -21
24 -2 -3 0 -14 6 -25 6 -12 11 -39 11 -62 0 -57 -37 -95 -86 -87 -23 4 -32 2
-28 -5 4 -5 -5 -2 -20 7 -14 10 -26 22 -26 28 0 5 10 2 22 -9 l21 -19 -17 27
c-18 28 -19 89 -2 133 5 11 -1 7 -13 -10 -11 -16 -21 -25 -21 -20 0 23 31 54
47 48 9 -4 14 -2 11 3 -4 5 16 9 44 9 40 0 53 -5 69 -24z m-163 -88 c0 -29 -2
-33 -9 -18 -11 27 -11 55 0 55 5 0 9 -17 9 -37z m192 18 c0 -27 -28 -91 -40
-91 -6 0 -3 11 5 24 9 13 17 37 18 55 2 33 17 44 17 12z"/>
<path d="M5850 461 c-14 -4 -25 -11 -25 -16 0 -6 -8 -27 -19 -48 -12 -27 -16
-50 -12 -75 5 -30 4 -34 -5 -18 -15 24 -5 93 17 117 9 10 12 19 6 19 -18 0
-42 -55 -42 -95 0 -45 25 -89 57 -104 44 -20 148 -8 114 13 -6 4 -11 3 -11 -2
0 -17 -81 5 -104 27 -31 32 -29 101 4 136 21 22 32 26 67 23 46 -3 68 16 30
26 -26 7 -44 6 -77 -3z m57 -7 c-3 -3 -12 -4 -19 -1 -8 3 -5 6 6 6 11 1 17 -2
13 -5z m-76 -191 l24 -27 -24 15 c-14 9 -27 21 -29 27 -6 19 3 14 29 -15z"/>
<path d="M6474 460 c-35 -14 -64 -59 -64 -99 0 -25 3 -32 9 -22 5 8 7 21 4 30
-4 14 -3 14 6 1 7 -11 6 -21 -5 -38 -33 -50 19 -102 102 -102 49 0 76 12 59
28 -4 4 -9 3 -11 -3 -5 -14 -104 -10 -118 5 -8 9 -5 9 14 0 25 -13 25 -12 -2
13 -16 15 -28 37 -28 51 0 25 0 25 85 23 94 -4 96 -2 74 62 -17 49 -74 72
-125 51z m72 -19 c5 1 16 1 24 0 12 -1 12 -3 2 -10 -10 -6 -11 -13 -1 -34 7
-15 16 -27 21 -27 5 0 6 -5 3 -10 -4 -6 -11 -7 -17 -4 -6 4 -39 6 -73 5 -61
-2 -63 -1 -68 26 -5 25 9 60 20 49 3 -2 19 2 36 9 20 8 34 10 38 4 3 -6 10 -9
15 -8z m47 -41 c3 -11 1 -18 -4 -14 -5 3 -9 12 -9 20 0 20 7 17 13 -6z m-153
-115 c14 -19 14 -19 -2 -6 -10 7 -18 18 -18 24 0 6 1 8 3 6 1 -2 9 -13 17 -24z"/>
<path d="M6445 419 c-4 -6 -5 -12 -2 -15 2 -3 7 2 10 11 7 17 1 20 -8 4z"/>
<path d="M7723 460 c-13 -5 -23 -14 -23 -20 0 -6 -4 -8 -10 -5 -5 3 -10 4 -10
2 0 -3 -7 -21 -15 -41 -15 -36 -15 -37 5 -26 11 6 20 17 20 24 0 8 7 19 15 26
8 7 12 16 9 21 -3 5 2 6 10 3 9 -3 16 -2 16 3 0 5 9 9 19 9 11 0 17 -4 15 -8
-3 -4 -1 -8 5 -8 18 0 41 -31 41 -56 0 -22 -4 -24 -54 -24 -29 0 -68 -3 -85
-6 -30 -6 -32 -9 -25 -38 9 -41 23 -63 51 -75 46 -21 153 -8 130 16 -5 4 -11
3 -15 -2 -4 -6 -26 -10 -49 -10 -23 0 -40 2 -38 4 2 1 -7 13 -20 25 -13 11
-25 32 -27 46 -3 27 -4 27 115 29 46 1 47 2 47 32 0 20 -10 40 -29 60 -30 30
-58 35 -98 19z m117 -63 c0 -12 0 -11 -24 28 l-17 30 20 -24 c12 -13 21 -28
21 -34z m-162 -92 c-3 -3 -9 2 -12 12 -6 14 -5 15 5 6 7 -7 10 -15 7 -18z m37
-53 c-6 -6 -35 18 -35 29 0 5 9 1 20 -8 11 -9 17 -19 15 -21z"/>
<path d="M8731 457 c-51 -18 -76 -58 -75 -119 0 -44 5 -55 33 -80 28 -25 39
-29 83 -26 31 2 53 8 56 16 4 13 -10 12 -73 -5 -11 -3 -17 -2 -13 2 4 4 -6 18
-23 32 -24 21 -29 32 -29 69 0 64 34 97 96 92 47 -3 63 15 22 26 -30 8 -37 7
-77 -7z m-7 -19 c-55 -26 -62 -121 -12 -176 l23 -26 -31 25 c-34 26 -49 82
-33 126 10 28 45 63 62 62 6 0 3 -5 -9 -11z"/>
<path d="M10594 451 c-40 -24 -58 -69 -51 -128 7 -64 40 -93 107 -93 26 0 55
3 64 6 23 9 9 25 -17 20 -57 -12 -90 -16 -85 -10 3 3 -5 16 -18 29 -13 13 -24
36 -24 50 l0 26 85 -3 c82 -3 85 -2 85 19 0 29 -10 54 -20 48 -4 -3 -7 3 -6
12 1 19 -38 43 -69 43 -11 0 -34 -9 -51 -19z m70 -3 c-5 -8 -2 -9 9 -5 9 3 16
3 15 -1 -2 -10 25 -66 35 -73 5 -3 -26 -6 -68 -7 -41 -1 -80 -4 -85 -7 -17
-10 -11 -51 11 -81 l21 -29 -26 28 c-21 22 -26 37 -24 72 0 24 5 50 10 57 6 9
7 5 4 -12 -5 -21 -4 -20 8 5 8 17 12 34 8 39 -3 5 0 6 6 2 7 -4 12 -2 12 4 0
6 4 8 10 5 5 -3 18 -1 27 4 24 14 36 14 27 -1z"/>
<path d="M11603 460 c-26 -11 -65 -69 -58 -87 2 -7 1 -15 -4 -17 -10 -6 -8 60
2 70 12 13 7 34 -8 34 -13 0 -15 -25 -15 -166 0 -152 1 -165 18 -162 22 4 24
67 2 86 -11 10 -12 14 -2 18 6 3 9 11 5 17 -13 20 -14 57 -4 75 9 15 11 14 11
-8 0 -38 3 -60 8 -56 2 2 12 -4 23 -15 23 -23 80 -25 114 -3 61 40 59 170 -4
207 -32 19 -54 20 -88 7z m101 -32 c9 -12 16 -29 15 -38 0 -13 -1 -13 -6 0 -3
8 -15 25 -26 38 -11 12 -15 22 -9 22 6 0 18 -10 26 -22z m-34 2 c24 -13 43
-72 35 -110 -4 -16 -18 -39 -32 -50 -14 -11 -21 -20 -14 -20 16 0 51 37 51 55
0 8 4 15 9 15 15 0 1 -37 -23 -60 -20 -18 -28 -20 -65 -11 -54 12 -70 34 -71
97 0 77 50 116 110 84z m57 -92 c-3 -7 -5 -2 -5 12 0 14 2 19 5 13 2 -7 2 -19
0 -25z"/>
<path d="M2476 350 c28 -68 43 -117 39 -129 -3 -11 -21 -33 -39 -48 -41 -37
-37 -61 6 -36 36 22 55 57 51 98 -2 17 -4 38 -4 48 0 10 -14 54 -30 98 -23 60
-35 79 -49 79 -17 0 -14 -12 26 -110z m3 45 c0 -5 -6 1 -14 15 -8 14 -14 30
-14 35 0 6 6 -1 14 -15 8 -14 14 -29 14 -35z m25 -65 c5 -17 4 -20 -2 -10 -5
8 -13 26 -16 40 -5 17 -4 20 2 10 5 -8 13 -26 16 -40z m4 -152 c-14 -18 -30
-34 -36 -36 -7 -2 3 13 20 32 39 45 49 47 16 4z"/>
<path d="M2578 375 c-15 -46 -25 -92 -21 -101 3 -10 2 -15 -3 -12 -5 4 -10 -6
-11 -20 l-1 -27 14 27 c8 15 27 62 43 105 16 43 32 86 36 96 5 12 2 17 -11 17
-15 0 -25 -19 -46 -85z m29 21 c-12 -30 -23 -53 -25 -51 -5 5 32 105 39 105 4
0 -2 -24 -14 -54z"/>
<path d="M3410 344 c0 -113 0 -115 22 -112 24 3 100 118 119 181 11 33 39 53
39 26 0 -5 -4 -7 -10 -4 -7 4 -7 -3 0 -20 7 -17 7 -24 0 -20 -6 4 -10 -25 -10
-79 0 -68 3 -86 14 -86 12 0 15 23 18 115 3 113 3 115 -19 115 -14 0 -31 -13
-48 -37 -27 -40 -32 -59 -13 -47 7 4 8 3 4 -5 -4 -6 -11 -9 -16 -6 -10 6 -55
-74 -47 -82 8 -7 -26 -43 -35 -37 -4 3 -7 49 -6 102 l2 97 6 -85 6 -85 2 93
c2 76 -1 92 -13 92 -12 0 -15 -20 -15 -116z m177 4 c-3 -8 -6 -5 -6 6 -1 11 2
17 5 13 3 -3 4 -12 1 -19z m-84 -13 c-3 -9 -8 -14 -10 -11 -3 3 -2 9 2 15 9
16 15 13 8 -4z m84 -77 c-3 -7 -5 -2 -5 12 0 14 2 19 5 13 2 -7 2 -19 0 -25z"/>
<path d="M3770 390 c0 -40 4 -70 10 -70 6 0 10 -12 9 -27 l-1 -28 -8 25 c-7
21 -8 19 -9 -17 -1 -32 3 -43 14 -43 12 0 15 13 15 55 l0 55 60 0 c33 0 60 4
60 10 0 6 7 10 15 10 10 0 15 -10 15 -27 0 -22 -2 -25 -10 -13 -11 17 -12 13
-14 -52 -1 -30 3 -38 16 -38 16 0 18 12 18 115 0 107 -1 115 -19 115 -17 0
-20 -8 -23 -47 l-3 -48 -42 -6 c-24 -3 -43 -2 -43 3 0 4 -7 5 -15 2 -12 -5
-15 4 -15 45 0 39 -4 51 -15 51 -12 0 -15 -14 -15 -70z m17 13 c-3 -10 -5 -2
-5 17 0 19 2 27 5 18 2 -10 2 -26 0 -35z m6 -36 c3 -8 1 -20 -4 -28 -6 -10 -9
-7 -9 14 0 29 5 35 13 14z m154 -109 c-3 -8 -6 -5 -6 6 -1 11 2 17 5 13 3 -3
4 -12 1 -19z"/>
<path d="M4710 345 c0 -108 1 -115 20 -115 11 0 20 5 20 11 0 6 -7 9 -15 5 -8
-3 -15 -1 -15 3 0 5 4 11 10 13 5 2 11 41 12 88 l3 85 63 3 62 3 0 -106 c0
-87 3 -105 15 -105 12 0 15 19 15 115 l0 115 -95 0 -95 0 0 -115z m30 95 c0
-5 -4 -10 -10 -10 -5 0 -10 5 -10 10 0 6 5 10 10 10 6 0 10 -4 10 -10z m148
-97 c-1 -110 -5 -97 -10 35 -2 39 0 72 5 72 4 0 6 -48 5 -107z m-161 -35 c-2
-24 -4 -7 -4 37 0 44 2 63 4 43 2 -21 2 -57 0 -80z"/>
<path d="M6090 345 l0 -115 55 0 c31 0 72 7 91 15 32 13 35 17 32 51 -3 33 -7
39 -38 49 l-34 12 32 11 c35 12 40 26 17 48 -13 14 -15 13 -15 -10 0 -30 -7
-35 -68 -45 l-47 -7 4 39 c2 26 -1 42 -10 48 -12 7 16 6 111 -5 9 -1 21 -5 28
-10 6 -4 12 -3 12 3 0 19 -39 31 -104 31 l-66 0 0 -115z m17 33 c-3 -7 -5 -2
-5 12 0 14 2 19 5 13 2 -7 2 -19 0 -25z m133 -51 c18 -5 26 -45 11 -60 -11
-11 -19 -12 -101 -18 l-45 -3 -1 49 -2 50 8 -50 7 -50 1 46 c1 25 4 48 7 51 4
4 63 -4 115 -15z"/>
<path d="M6241 308 c0 -9 -4 -25 -7 -35 -5 -14 -4 -15 5 -7 7 7 11 22 8 35 -2
13 -5 16 -6 7z"/>
<path d="M6720 450 c0 -5 18 -10 40 -10 l40 0 0 -105 c0 -87 3 -105 15 -105
12 0 15 18 15 105 l0 105 40 0 c22 0 40 5 40 10 0 6 -38 10 -95 10 -57 0 -95
-4 -95 -10z m104 -15 c-4 -8 -7 -15 -9 -15 -2 0 -5 7 -9 15 -3 9 0 15 9 15 9
0 12 -6 9 -15z m-7 -127 c-2 -18 -4 -4 -4 32 0 36 2 50 4 33 2 -18 2 -48 0
-65z m0 -60 c-3 -8 -6 -5 -6 6 -1 11 2 17 5 13 3 -3 4 -12 1 -19z"/>
<path d="M7038 345 c3 -102 5 -115 21 -115 20 0 121 161 121 192 0 12 4 16 12
12 7 -4 8 -3 4 4 -4 7 -1 12 8 12 14 0 16 -16 14 -107 l-2 -108 -6 95 -6 95
-2 -97 c-2 -81 1 -98 13 -98 12 0 15 19 15 115 0 113 0 115 -22 115 -27 -1
-71 -65 -129 -192 -15 -34 -35 -38 -24 -5 4 12 10 61 12 110 5 80 3 87 -14 87
-17 0 -18 -9 -15 -115z m19 33 c-2 -13 -4 -3 -4 22 0 25 2 35 4 23 2 -13 2
-33 0 -45z m66 -53 c-3 -9 -8 -14 -10 -11 -3 3 -2 9 2 15 9 16 15 13 8 -4z"/>
<path d="M7360 451 c0 -5 43 -9 95 -9 52 0 95 4 95 9 0 5 -43 9 -95 9 -52 0
-95 -4 -95 -9z"/>
<path d="M8019 374 c-4 -75 -7 -88 -27 -104 -23 -19 -29 -40 -11 -40 25 0 49
23 59 58 13 48 13 155 0 147 -5 -3 -10 -2 -10 3 0 5 19 7 43 5 23 -3 58 0 77
5 31 9 26 10 -46 11 l-82 1 -3 -86z m18 4 c-3 -8 -6 -5 -6 6 -1 11 2 17 5 13
3 -3 4 -12 1 -19z m-21 -113 c-9 -14 -21 -25 -26 -25 -6 0 -1 9 10 20 11 11
20 25 20 32 0 6 3 8 6 5 4 -4 -1 -18 -10 -32z"/>
<path d="M8340 344 l0 -116 64 4 c82 5 116 26 116 73 0 51 -31 75 -97 75 l-53
0 0 40 c0 29 -4 40 -15 40 -12 0 -15 -20 -15 -116z m23 -1 c1 -57 2 -74 4 -40
l4 57 60 -2 c63 -2 79 -14 79 -56 0 -27 -25 -45 -68 -49 -20 -1 -49 -5 -64 -8
l-28 -4 0 106 c0 58 3 104 6 100 4 -3 7 -50 7 -104z"/>
<path d="M8482 331 c9 -15 9 -25 -1 -47 -11 -24 -10 -26 3 -14 23 18 18 80 -5
80 -5 0 -4 -9 3 -19z"/>
<path d="M8978 435 c2 -14 8 -22 13 -19 5 3 9 0 9 -5 0 -6 -4 -11 -10 -11 -5
0 -10 -20 -10 -45 0 -25 5 -45 10 -45 15 0 12 -28 -6 -55 -16 -24 -15 -25 5
-25 18 0 21 6 21 44 0 25 -4 48 -10 51 -5 3 -10 18 -10 33 1 23 2 25 11 9 5
-9 8 -21 5 -26 -3 -4 5 -6 17 -4 30 6 73 -29 88 -72 8 -22 20 -35 31 -35 23 0
23 1 -7 60 -17 34 -33 52 -50 56 -14 3 -25 9 -25 12 0 4 21 28 47 54 40 41 44
48 26 48 -13 0 -37 -19 -63 -50 -23 -27 -46 -50 -51 -50 -5 0 -9 23 -9 50 0
42 -3 50 -19 50 -14 0 -17 -6 -13 -25z m111 -34 c-24 -27 -48 -49 -53 -50 -5
-1 11 21 35 48 24 27 48 49 53 50 5 1 -11 -21 -35 -48z m38 -120 c8 -18 12
-35 10 -38 -3 -2 -10 12 -17 32 -7 20 -18 39 -26 42 -8 3 -14 10 -14 15 0 19
33 -17 47 -51z"/>
<path d="M9301 358 c1 -96 2 -101 14 -73 8 17 14 63 15 103 0 57 -3 72 -15 72
-12 0 -15 -18 -14 -102z"/>
<path d="M9397 380 c-27 -44 -49 -89 -50 -100 -1 -12 -7 -18 -14 -16 -8 3 -10
-1 -6 -11 5 -12 2 -15 -10 -10 -9 3 -17 2 -17 -3 0 -6 8 -10 18 -10 13 0 35
28 70 88 28 48 56 94 61 102 7 10 10 -18 10 -87 1 -85 4 -103 16 -103 12 0 15
19 15 115 0 113 0 115 -23 115 -17 0 -33 -18 -70 -80z m80 24 c0 -21 -1 -28
-3 -14 -9 50 -12 54 -32 39 -15 -13 -16 -12 -3 4 21 27 36 15 38 -29z m0 -136
c-2 -18 -4 -4 -4 32 0 36 2 50 4 33 2 -18 2 -48 0 -65z m-104 37 c-3 -9 -8
-14 -10 -11 -3 3 -2 9 2 15 9 16 15 13 8 -4z"/>
<path d="M9650 360 c0 -78 3 -100 14 -100 10 0 14 23 15 100 2 84 0 100 -14
100 -12 0 -15 -16 -15 -100z"/>
<path d="M9757 382 c-26 -43 -53 -92 -59 -110 -9 -24 -17 -31 -30 -26 -10 3
-18 1 -18 -5 0 -6 10 -11 23 -11 18 0 33 18 75 88 29 49 52 96 52 106 0 9 5
14 10 11 6 -3 10 -39 10 -78 0 -50 3 -67 10 -57 6 9 10 10 10 3 0 -6 -4 -15
-10 -18 -16 -10 -12 -55 5 -55 12 0 15 19 15 115 0 113 0 115 -23 115 -18 0
-33 -17 -70 -78z m80 41 c1 -16 -1 -21 -4 -13 -3 8 -10 21 -16 28 -6 8 -5 12
5 12 8 0 14 -11 15 -27z m-85 -82 c-9 -16 -18 -28 -21 -26 -4 5 27 55 34 55 2
0 -4 -13 -13 -29z m85 -3 c-3 -8 -6 -5 -6 6 -1 11 2 17 5 13 3 -3 4 -12 1 -19z"/>
<path d="M10200 344 l0 -115 99 3 c81 2 98 1 92 -10 -10 -17 -2 -62 10 -62 13
0 11 88 -2 92 -8 3 -11 37 -10 106 2 97 1 102 -18 102 -20 0 -21 -6 -21 -90 0
-115 19 -121 22 -7 l2 82 3 -78 c3 -50 0 -84 -8 -93 -7 -9 -32 -14 -70 -14
-33 0 -59 -4 -59 -10 0 -5 -7 -10 -15 -10 -8 0 -15 5 -15 10 0 6 5 10 10 10 6
0 10 40 10 100 0 82 -3 100 -15 100 -12 0 -15 -20 -15 -116z m17 -27 c-2 -23
-3 -1 -3 48 0 50 1 68 3 42 2 -26 2 -67 0 -90z m168 -67 c3 -5 -3 -10 -15 -10
-12 0 -18 5 -15 10 3 6 10 10 15 10 5 0 12 -4 15 -10z"/>
<path d="M10888 345 c-3 -104 -1 -115 15 -115 14 0 17 9 17 55 l0 55 59 0 c65
0 71 6 71 65 0 19 3 36 8 38 4 3 8 -31 9 -74 2 -72 -9 -105 -20 -61 -3 9 -5 2
-4 -15 1 -30 17 -49 17 -21 0 6 3 8 7 5 3 -4 -2 -16 -12 -27 -18 -19 -17 -20
3 -20 21 0 22 4 22 115 0 107 -1 115 -19 115 -17 0 -20 -8 -23 -47 l-3 -48
-58 -5 c-36 -3 -62 -11 -67 -20 -7 -11 -10 -8 -10 15 0 23 3 27 10 15 7 -11
10 0 10 38 0 39 -4 52 -14 52 -12 0 -15 -23 -18 -115z m19 58 c-3 -10 -5 -2
-5 17 0 19 2 27 5 18 2 -10 2 -26 0 -35z m0 -145 c-2 -13 -4 -3 -4 22 0 25 2
35 4 23 2 -13 2 -33 0 -45z"/>
<path d="M11210 449 c0 -8 17 -10 55 -5 49 5 54 4 48 -11 -4 -11 -8 -13 -11
-5 -2 7 -8 10 -13 6 -5 -3 -9 -50 -9 -105 0 -92 1 -99 20 -99 19 0 20 7 20
105 l0 105 35 0 c19 0 35 5 35 10 0 6 -37 10 -90 10 -61 0 -90 -4 -90 -11z
m100 -54 c0 -8 -4 -15 -10 -15 -5 0 -10 7 -10 15 0 8 5 15 10 15 6 0 10 -7 10
-15z m-11 -149 c-9 -8 -10 -7 -5 7 3 10 7 42 8 70 l2 52 3 -59 c3 -37 0 -63
-8 -70z"/>
<path d="M7440 333 c0 -85 3 -103 15 -103 12 0 15 18 15 103 0 86 -3 104 -15
104 -12 0 -15 -18 -15 -104z m17 -56 c-2 -23 -3 -1 -3 48 0 50 1 68 3 42 2
-26 2 -67 0 -90z"/>
<path d="M8140 333 c0 -85 3 -103 15 -103 12 0 15 18 15 103 0 86 -3 104 -15
104 -12 0 -15 -18 -15 -104z m17 50 c-3 -10 -5 -4 -5 12 0 17 2 24 5 18 2 -7
2 -21 0 -30z m0 -90 c-2 -16 -4 -5 -4 22 0 28 2 40 4 28 2 -13 2 -35 0 -50z"/>
<path d="M4460 360 c0 -5 25 -10 55 -10 30 0 55 5 55 10 0 6 -25 10 -55 10
-30 0 -55 -4 -55 -10z"/>
<path d="M5071 208 c-1 -63 2 -78 14 -78 12 0 15 13 15 55 0 30 -4 55 -9 55
-5 0 -12 10 -14 23 -2 12 -5 -13 -6 -55z m16 -10 c-3 -8 -6 -5 -6 6 -1 11 2
17 5 13 3 -3 4 -12 1 -19z"/>
</g>
</svg>
