<?xml version="1.0" standalone="no"?>
<!DOCTYPE svg PUBLIC "-//W3C//DTD SVG 20010904//EN"
 "http://www.w3.org/TR/2001/REC-SVG-20010904/DTD/svg10.dtd">
<svg version="1.0" xmlns="http://www.w3.org/2000/svg"
 width="5000.000000pt" height="1602.000000pt" viewBox="0 0 5000.000000 1602.000000"
 preserveAspectRatio="xMidYMid meet">

<g transform="translate(0.000000,1602.000000) scale(0.100000,-0.100000)"
fill="#000000" stroke="none">
<path d="M0 8010 l0 -8010 25000 0 25000 0 0 8010 0 8010 -25000 0 -25000 0 0
-8010z m14315 5975 c548 -83 1051 -405 1365 -873 172 -258 286 -581 319 -911
15 -142 15 -8221 1 -8375 -24 -248 -87 -473 -194 -691 -113 -230 -231 -390
-419 -571 -286 -275 -647 -455 -1046 -523 l-124 -21 -5701 0 c-5632 0 -5702 0
-5821 20 -871 143 -1534 824 -1660 1705 -14 98 -15 352 -13 2320 l4 2210 27
125 c111 500 366 908 750 1202 251 192 521 311 867 380 l115 23 4612 3 4613 2
0 -1000 0 -1000 -4227 -3 c-4057 -2 -4230 -3 -4288 -21 -173 -52 -328 -181
-404 -336 -75 -153 -71 -61 -71 -1640 0 -1546 -2 -1487 58 -1614 82 -172 246
-310 432 -363 63 -17 241 -18 5000 -17 4535 1 4940 3 5000 18 228 57 417 243
477 467 15 60 17 306 17 3509 1 3303 0 3448 -17 3509 -66 234 -230 397 -466
464 l-76 22 -6212 3 -6213 2 0 995 0 995 6598 0 c5825 0 6609 -2 6697 -15z
m9079 -2837 c7 -18 370 -1099 806 -2402 436 -1303 814 -2423 841 -2488 112
-279 228 -397 419 -427 36 -6 149 -11 253 -11 l187 0 0 -415 0 -415 -1700 0
-1700 0 0 415 0 415 238 0 c275 1 359 12 468 64 l74 35 0 78 c0 149 -34 306
-140 643 -33 107 -68 223 -77 257 l-15 63 -949 0 -948 0 -21 -72 c-12 -40 -46
-149 -77 -243 -30 -93 -70 -224 -88 -291 -40 -146 -73 -368 -59 -392 18 -29
101 -79 166 -101 99 -33 186 -41 441 -41 l237 0 -2 -412 -3 -413 -1372 -3
-1373 -2 0 414 0 414 233 4 c203 4 239 7 288 25 158 58 255 179 360 448 28 72
354 1037 724 2145 370 1108 728 2178 795 2378 l122 362 929 0 930 0 13 -32z
m4596 -1124 l0 -1157 118 114 c279 271 559 433 854 493 245 50 614 18 901 -77
531 -178 911 -591 1101 -1197 187 -598 191 -1410 9 -2010 -108 -357 -254 -612
-477 -836 -212 -212 -441 -345 -726 -424 -214 -59 -591 -87 -820 -61 -311 36
-608 142 -810 291 -103 76 -245 218 -325 323 -32 43 -62 74 -66 70 -4 -4 -63
-127 -130 -273 -67 -146 -126 -271 -132 -277 -7 -10 -125 -13 -528 -13 l-519
0 -3 2588 c-2 2321 -4 2592 -18 2637 -31 98 -72 150 -140 179 -60 25 -240 39
-409 32 -85 -3 -165 -3 -177 0 l-23 6 0 367 c0 202 3 371 7 374 3 4 525 7
1160 7 l1153 0 0 -1156z m5230 2 l0 -1155 96 94 c278 275 573 447 874 511 106
22 399 25 540 5 432 -61 804 -251 1058 -541 292 -334 465 -782 527 -1365 17
-164 20 -584 5 -755 -71 -787 -380 -1385 -877 -1694 -294 -183 -620 -266
-1043 -266 -315 1 -558 52 -809 171 -206 98 -388 246 -534 434 -38 50 -72 91
-76 92 -3 2 -65 -124 -136 -280 l-130 -282 -523 -3 -522 -2 0 2512 c0 1403 -4
2554 -10 2606 -4 51 -16 114 -25 141 -20 62 -74 124 -124 144 -65 26 -241 40
-417 33 -88 -4 -168 -4 -177 0 -16 6 -17 39 -17 380 l0 374 1160 0 1160 0 0
-1154z m10630 199 l0 -866 813 3 812 3 97 27 c253 69 440 202 584 413 153 225
245 456 313 787 25 124 38 207 70 443 l6 50 463 3 462 2 0 -865 0 -865 575 0
575 0 0 -375 0 -375 -575 0 -575 0 0 -1277 c0 -788 4 -1304 10 -1346 14 -98
44 -160 102 -212 59 -53 123 -75 217 -75 222 1 350 114 403 355 18 80 21 140
27 570 l6 480 373 3 372 2 0 -511 c0 -410 -3 -533 -16 -618 -97 -669 -448
-997 -1179 -1103 -57 -8 -191 -13 -365 -13 -243 0 -290 3 -405 24 -368 65
-649 219 -822 449 -150 199 -237 454 -263 766 -6 80 -10 584 -10 1317 l0 1189
-1035 0 -1035 0 2 -1338 3 -1337 33 -67 c63 -128 151 -174 316 -166 72 3 102
10 147 31 213 102 261 277 259 927 -1 173 -1 345 -1 383 l1 67 370 -2 371 -3
2 -490 c1 -361 -1 -516 -11 -590 -29 -216 -78 -387 -152 -535 -167 -330 -512
-541 -990 -605 -168 -23 -516 -31 -661 -16 -529 55 -894 273 -1081 646 -42 83
-92 220 -114 313 -43 183 -44 218 -44 1530 l0 1252 -315 0 -315 0 0 370 0 369
33 5 c17 3 60 8 95 11 228 22 466 137 621 300 248 261 393 637 478 1233 l27
192 463 0 463 0 0 -865z m-4265 -749 c428 -56 791 -189 1110 -407 471 -321
785 -856 870 -1479 23 -162 31 -518 16 -676 -90 -954 -607 -1629 -1466 -1913
-321 -106 -520 -135 -930 -135 -321 -1 -407 7 -660 60 -437 92 -888 333 -1150
616 -250 270 -424 592 -515 958 -96 385 -104 864 -21 1264 93 443 287 805 587
1096 174 169 336 279 572 393 279 133 589 209 987 241 104 8 485 -3 600 -18z"/>
<path d="M21756 8798 c-181 -546 -331 -999 -333 -1005 -4 -10 133 -13 666 -13
369 0 671 4 671 8 0 15 -661 1987 -669 1995 -4 4 -155 -440 -335 -985z"/>
<path d="M28565 8671 c-191 -56 -333 -201 -424 -435 -66 -169 -102 -332 -133
-606 -20 -180 -17 -768 5 -950 76 -622 260 -936 590 -1004 96 -20 138 -20 235
0 239 49 384 202 495 521 95 271 135 673 117 1179 -17 478 -87 794 -230 1035
-74 124 -211 226 -355 264 -79 20 -223 18 -300 -4z"/>
<path d="M33887 8689 c-301 -32 -500 -270 -596 -711 -57 -265 -76 -507 -68
-898 12 -585 85 -916 258 -1171 107 -159 270 -243 469 -243 165 0 286 48 396
158 245 247 345 688 331 1473 -8 485 -55 750 -180 1023 -118 257 -349 397
-610 369z"/>
<path d="M39052 8740 c-133 -24 -228 -76 -320 -175 -185 -197 -261 -495 -293
-1135 -12 -246 -1 -604 26 -865 70 -667 288 -954 725 -955 356 0 572 209 670
650 52 236 73 495 74 915 1 616 -52 974 -180 1225 -119 232 -283 338 -539 346
-60 1 -134 -1 -163 -6z"/>
</g>
</svg>
