<?xml version="1.0" standalone="no"?>
<!DOCTYPE svg PUBLIC "-//W3C//DTD SVG 20010904//EN"
 "http://www.w3.org/TR/2001/REC-SVG-20010904/DTD/svg10.dtd">
<svg version="1.0" xmlns="http://www.w3.org/2000/svg"
 width="1024.000000pt" height="500.000000pt" viewBox="0 0 1024.000000 500.000000"
 preserveAspectRatio="xMidYMid meet">

<g transform="translate(0.000000,500.000000) scale(0.100000,-0.100000)"
fill="#000000" stroke="none">
<path d="M1943 3619 c-72 -21 -126 -102 -393 -594 -211 -387 -453 -841 -577
-1084 -101 -196 -105 -205 -98 -250 20 -134 129 -261 226 -261 51 0 97 59 273
351 394 652 648 1049 686 1069 29 15 55 12 84 -11 47 -37 210 -289 553 -853
124 -204 248 -406 276 -449 70 -110 120 -131 202 -82 47 27 106 107 130 174
30 86 24 107 -94 335 -130 253 -380 722 -579 1086 -263 483 -305 546 -380 568
-46 14 -262 14 -309 1z"/>
<path d="M4270 2565 l0 -805 490 0 490 0 0 140 0 140 -342 2 -343 3 0 200 0
200 313 3 312 2 0 135 0 135 -315 0 -315 0 0 180 0 180 345 0 345 0 0 145 0
145 -490 0 -490 0 0 -805z"/>
<path d="M7377 2980 c-65 -20 -126 -59 -163 -103 l-24 -29 0 61 0 61 -135 0
-135 0 0 -865 0 -865 140 0 140 0 0 317 0 316 38 -37 c89 -91 213 -129 348
-108 108 17 176 53 265 142 84 83 126 158 156 276 24 97 24 334 0 424 -55 208
-203 369 -381 416 -71 19 -180 17 -249 -6z m188 -264 c62 -29 117 -86 145
-148 44 -101 45 -299 0 -402 -24 -57 -82 -121 -134 -149 -59 -31 -193 -31
-253 0 -54 29 -100 86 -118 147 -20 67 -21 334 -1 400 16 52 55 108 92 132 75
50 189 58 269 20z"/>
<path d="M8653 2986 c-88 -22 -163 -65 -238 -140 -124 -123 -175 -264 -175
-488 0 -217 54 -369 172 -486 74 -73 132 -106 234 -132 98 -25 180 -25 278 0
102 26 168 65 244 144 121 125 168 279 160 515 -4 111 -10 151 -32 218 -60
185 -201 321 -381 368 -70 18 -189 18 -262 1z m222 -257 c64 -18 139 -101 165
-186 30 -96 30 -260 0 -356 -26 -85 -101 -168 -165 -186 -150 -41 -281 32
-331 185 -26 81 -27 275 -1 354 52 156 181 230 332 189z"/>
<path d="M5530 2964 c0 -4 86 -136 190 -294 l190 -288 -205 -314 -206 -313
143 -3 c78 -1 147 -1 154 2 6 2 74 101 150 220 77 118 142 214 146 213 4 -1
70 -99 146 -217 l139 -215 151 -3 c84 -1 152 0 152 2 0 3 -92 146 -204 317
l-204 312 87 131 c49 72 136 204 194 294 l106 162 -148 0 -149 0 -133 -205
c-73 -113 -136 -205 -139 -205 -3 0 -64 91 -136 203 l-131 202 -147 3 c-80 1
-146 0 -146 -4z"/>
</g>
</svg>
