<?xml version="1.0" standalone="no"?>
<!DOCTYPE svg PUBLIC "-//W3C//DTD SVG 20010904//EN"
 "http://www.w3.org/TR/2001/REC-SVG-20010904/DTD/svg10.dtd">
<svg version="1.0" xmlns="http://www.w3.org/2000/svg"
 width="3142.000000pt" height="503.000000pt" viewBox="0 0 3142.000000 503.000000"
 preserveAspectRatio="xMidYMid meet">

<g transform="translate(0.000000,503.000000) scale(0.100000,-0.100000)"
fill="#000000" stroke="none">
<path d="M11740 4470 c-341 -36 -644 -168 -902 -394 -513 -448 -746 -1297
-572 -2086 88 -398 251 -709 508 -966 342 -342 743 -493 1251 -471 369 16 643
112 924 322 331 248 552 593 666 1040 60 233 70 321 70 610 -1 290 -14 399
-80 639 -145 528 -460 926 -914 1155 -97 50 -285 109 -417 131 -136 24 -401
34 -534 20z m420 -689 c362 -93 629 -426 720 -898 61 -317 42 -649 -55 -940
-125 -374 -384 -633 -697 -697 -96 -20 -280 -20 -370 -1 -156 33 -268 96 -399
225 -241 237 -363 557 -376 990 -22 725 324 1273 847 1344 71 9 256 -3 330
-23z"/>
<path d="M18070 4469 c-818 -89 -1393 -715 -1515 -1652 -17 -135 -20 -426 -5
-562 27 -246 112 -548 211 -751 170 -349 469 -653 789 -803 443 -207 1038
-201 1474 15 539 267 889 805 981 1507 17 134 20 417 5 552 -32 289 -125 601
-242 814 -257 470 -671 776 -1167 862 -134 23 -402 33 -531 18z m420 -688
c306 -78 550 -335 670 -702 114 -346 111 -786 -5 -1136 -125 -374 -384 -633
-697 -697 -96 -20 -280 -20 -370 -1 -142 30 -260 92 -376 200 -252 234 -385
573 -399 1015 -22 725 324 1273 847 1344 71 9 256 -3 330 -23z"/>
<path d="M840 2515 l0 -1885 1360 0 1360 0 0 320 0 320 -995 0 -995 0 0 200 0
200 995 0 995 0 0 320 0 320 -995 0 -995 0 0 205 0 205 995 0 995 0 0 320 0
320 -995 0 -995 0 0 200 0 200 995 0 995 0 0 320 0 320 -1360 0 -1360 0 0
-1885z"/>
<path d="M3870 4395 c0 -3 254 -408 565 -901 311 -492 565 -899 565 -904 0 -6
-1127 -1815 -1204 -1932 l-18 -28 429 0 430 0 388 647 c312 520 390 643 399
631 6 -8 182 -299 391 -646 l380 -631 428 -1 c236 0 427 4 425 8 -1 4 -277
445 -611 980 l-608 972 547 872 c301 480 556 888 567 906 l19 32 -430 0 -431
0 -337 -562 c-185 -310 -340 -567 -344 -571 -4 -5 -162 248 -350 562 l-343
571 -429 0 c-235 0 -428 -2 -428 -5z"/>
<path d="M7290 2515 l0 -1885 375 0 375 0 0 674 0 673 368 6 c469 8 627 28
878 112 192 64 337 165 466 325 203 250 301 557 285 889 -9 192 -52 348 -144
522 -173 330 -542 514 -1122 559 -74 5 -438 10 -808 10 l-673 0 0 -1885z
m1500 1211 c101 -18 217 -56 275 -91 223 -130 289 -512 130 -752 -67 -101
-198 -179 -360 -215 -78 -18 -139 -21 -442 -25 l-353 -5 0 557 0 558 333 -6
c234 -4 357 -10 417 -21z"/>
<path d="M13970 2515 l0 -1885 385 0 385 0 0 760 0 760 715 0 715 0 0 335 0
335 -715 0 -715 0 0 445 0 445 900 0 900 0 0 345 0 345 -1285 0 -1285 0 0
-1885z"/>
<path d="M20260 2516 l0 -1886 375 0 375 0 0 705 0 705 207 -2 207 -3 461
-700 462 -700 436 -3 436 -2 -223 337 c-122 186 -338 513 -479 726 -142 213
-257 389 -257 391 0 2 35 16 78 31 103 37 221 97 309 157 94 65 237 214 296
310 139 223 206 533 179 825 -15 166 -41 265 -102 388 -135 274 -381 461 -719
545 -213 53 -214 53 -1158 57 l-883 4 0 -1885z m1685 1195 c240 -53 375 -173
416 -369 17 -85 7 -255 -20 -325 -30 -78 -91 -151 -163 -197 -159 -103 -337
-129 -885 -130 l-283 0 0 526 0 526 418 -5 c383 -4 425 -6 517 -26z"/>
<path d="M23463 3083 c3 -1188 5 -1327 20 -1410 55 -300 194 -550 415 -747
405 -361 1103 -477 1690 -281 495 166 830 541 913 1023 18 109 19 173 19 1423
l0 1309 -380 0 -379 0 -4 -1272 -3 -1273 -22 -85 c-38 -143 -93 -242 -192
-341 -67 -68 -101 -94 -160 -122 -131 -62 -183 -72 -385 -72 -201 0 -256 10
-380 70 -168 81 -300 248 -358 452 l-22 78 -3 1283 -3 1282 -385 0 -385 0 4
-1317z"/>
<path d="M26940 2515 l0 -1885 380 0 380 0 2 1054 3 1054 494 -1064 495 -1065
138 3 139 3 447 1046 447 1047 3 -1039 2 -1039 380 0 380 0 0 1885 0 1885
-396 -2 -395 -3 -499 -1244 c-274 -684 -500 -1245 -502 -1246 -2 -2 -253 559
-558 1246 l-555 1249 -392 0 -393 0 0 -1885z"/>
</g>
</svg>
