<svg width="32" height="32" viewBox="0 0 32 32" fill="none" xmlns="http://www.w3.org/2000/svg">
<path d="M25 0.5H7C3.41015 0.5 0.5 3.41015 0.5 7V25C0.5 28.5899 3.41015 31.5 7 31.5H25C28.5899 31.5 31.5 28.5899 31.5 25V7C31.5 3.41015 28.5899 0.5 25 0.5Z" fill="white" stroke="black"/>
<path d="M22.6854 15.793L22.6861 15.7912C22.8994 15.2036 23 14.6449 23 14.1257V14.1234C23.0015 13.5677 22.8957 13.0284 22.6874 12.5179C22.4861 12.0271 22.1957 11.5818 21.8323 11.2074C21.4673 10.8305 21.0361 10.5301 20.5631 10.3239C20.0724 10.1092 19.5448 9.99875 19.013 10H19.0113C18.2629 10 17.5347 10.2158 16.9029 10.6218C16.7517 10.7188 16.6087 10.8253 16.4735 10.9408L16.0008 11.3446L15.5283 10.9408C15.3931 10.8253 15.2501 10.7189 15.0989 10.6219C14.4671 10.2159 13.7389 10 12.9905 10C12.4504 10 11.9306 10.1086 11.4396 10.3235C10.9647 10.5306 10.5371 10.8281 10.1699 11.2069L10.1689 11.2081C9.8053 11.5817 9.51521 12.0266 9.31472 12.5172C9.10612 13.0278 9 13.5682 9 14.1257C9 14.6448 9.10073 15.2037 9.31396 15.7912M22.6854 15.793C22.5087 16.2832 22.2456 16.8077 21.8995 17.3521M22.6854 15.793L21.8995 17.3521M10.1003 17.3516C10.6478 18.2113 11.4144 19.1291 12.3886 20.0765C13.1953 20.8613 14.0012 21.5275 14.6153 22.0038C14.9217 22.2414 15.1789 22.4306 15.3627 22.5623C15.4545 22.6283 15.5277 22.6796 15.5794 22.7154C15.6256 22.7474 15.6508 22.7644 15.6565 22.7681L15.6577 22.7689L15.6697 22.7767L16 23L16.3304 22.7768C16.3855 22.7397 17.9911 21.651 19.6114 20.0765C20.5853 19.1293 21.3521 18.2115 21.8995 17.3521M10.1003 17.3516C9.75529 16.809 9.49314 16.2839 9.31396 15.7912M10.1003 17.3516L9.31396 15.7912" stroke="black" stroke-width="1.4"/>
</svg>
